<svg width="154" height="69" viewBox="0 0 154 69" fill="none" xmlns="http://www.w3.org/2000/svg">
<path d="M153 34.5C153 38.9409 150.995 43.245 147.222 47.2425C143.443 51.2453 137.929 54.8954 131.038 57.9826C117.26 64.156 98.1556 68 77 68C55.8444 68 36.7399 64.156 22.9617 57.9826C16.0714 54.8954 10.5569 51.2453 6.77821 47.2425C3.00457 43.245 1 38.9409 1 34.5C1 30.0591 3.00457 25.755 6.77821 21.7575C10.5569 17.7547 16.0714 14.1046 22.9617 11.0174C36.7399 4.84405 55.8444 1 77 1C98.1556 1 117.26 4.84405 131.038 11.0174C137.929 14.1046 143.443 17.7547 147.222 21.7575C150.995 25.755 153 30.0591 153 34.5Z" stroke="black" stroke-width="2"/>
</svg>
